HIERARCHY
ROOT hip
{
  OFFSET 0 0 0
  CHANNELS 6 Xposition Yposition Zposition Zrotation Yrotation Xrotation
  JOINT abdomen
  {
    OFFSET 0 20.6881 -0.73152
    CHANNELS 3 Zrotation Xrotation Yrotation
    JOINT chest
    {
      OFFSET 0 11.7043 -0.48768
      CHANNELS 3 Zrotation Xrotation Yrotation
      JOINT neck
      {
        OFFSET 0 22.1894 -2.19456
        CHANNELS 3 Zrotation Xrotation Yrotation
        JOINT head
        {
          OFFSET -0.24384 7.07133 1.2192
          CHANNELS 3 Zrotation Xrotation Yrotation
          JOINT leftEye
          {
            OFFSET 4.14528 8.04674 8.04672
            CHANNELS 3 Zrotation Xrotation Yrotation
            End Site
            {
              OFFSET 1 0 0
            }
          }
          JOINT rightEye
          {
            OFFSET -3.6576 8.04674 8.04672
            CHANNELS 3 Zrotation Xrotation Yrotation
            End Site
            {
              OFFSET 1 0 0
            }
          }
        }
      }
      JOINT rCollar
      {
        OFFSET -2.68224 19.2634 -4.8768
        CHANNELS 3 Zrotation Xrotation Yrotation
        JOINT rShldr
        {
          OFFSET -8.77824 -1.95073 1.46304
          CHANNELS 3 Zrotation Xrotation Yrotation
          JOINT rForeArm
          {
            OFFSET -28.1742 -1.7115 0.48768
            CHANNELS 3 Zrotation Xrotation Yrotation
            JOINT rHand
            {
              OFFSET -22.5879 0.773209 7.07136
              CHANNELS 3 Zrotation Xrotation Yrotation
              JOINT rThumb1
              {
                OFFSET -1.2192 -0.487915 3.41376
                CHANNELS 3 Zrotation Xrotation Yrotation
                JOINT rThumb2
                {
                  OFFSET -3.37035 -0.52449 3.41376
                  CHANNELS 3 Zrotation Xrotation Yrotation
                  End Site
                  {
                    OFFSET -1.78271 -1.18214 1.43049
                  }
                }
              }
              JOINT rIndex1
              {
                OFFSET -7.75947 0.938293 5.60832
                CHANNELS 3 Zrotation Xrotation Yrotation
                JOINT rIndex2
                {
                  OFFSET -2.54057 -0.884171 1.56538
                  CHANNELS 3 Zrotation Xrotation Yrotation
                  End Site
                  {
                    OFFSET -1.62519 -0.234802 1.16502
                  }
                }
              }
              JOINT rMid1
              {
                OFFSET -8.24714 1.18213 3.41376
                CHANNELS 3 Zrotation Xrotation Yrotation
                JOINT rMid2
                {
                  OFFSET -3.10165 -0.590103 1.0647
                  CHANNELS 3 Zrotation Xrotation Yrotation
                  End Site
                  {
                    OFFSET -2.48547 -0.328903 0.83742
                  }
                }
              }
              JOINT rRing1
              {
                OFFSET -8.82822 0.546677 1.51678
                CHANNELS 3 Zrotation Xrotation Yrotation
                JOINT rRing2
                {
                  OFFSET -2.60934 -0.819778 -0.0198488
                  CHANNELS 3 Zrotation Xrotation Yrotation
                  End Site
                  {
                    OFFSET -2.33842 -0.294052 0.168128
                  }
                }
              }
              JOINT rPinky1
              {
                OFFSET -8.27202 -0.0477905 -0.4584
                CHANNELS 3 Zrotation Xrotation Yrotation
                JOINT rPinky2
                {
                  OFFSET -1.82734 -0.647385 -0.700984
                  CHANNELS 3 Zrotation Xrotation Yrotation
                  End Site
                  {
                    OFFSET -1.69225 -0.51767 -0.607171
                  }
                }
              }
            }
          }
        }
      }
      JOINT lCollar
      {
        OFFSET 2.68224 19.2634 -4.8768
        CHANNELS 3 Zrotation Xrotation Yrotation
        JOINT lShldr
        {
          OFFSET 8.77824 -1.95073 1.46304
          CHANNELS 3 Zrotation Xrotation Yrotation
          JOINT lForeArm
          {
            OFFSET 28.1742 -1.7115 0.48768
            CHANNELS 3 Zrotation Xrotation Yrotation
            JOINT lHand
            {
              OFFSET 22.5879 0.773209 7.07136
              CHANNELS 3 Zrotation Xrotation Yrotation
              JOINT lThumb1
              {
                OFFSET 1.2192 -0.487915 3.41376
                CHANNELS 3 Zrotation Xrotation Yrotation
                JOINT lThumb2
                {
                  OFFSET 3.37035 -0.52449 3.41376
                  CHANNELS 3 Zrotation Xrotation Yrotation
                  End Site
                  {
                    OFFSET 1.78271 -1.18214 1.43049
                  }
                }
              }
              JOINT lIndex1
              {
                OFFSET 7.75947 0.938293 5.60832
                CHANNELS 3 Zrotation Xrotation Yrotation
                JOINT lIndex2
                {
                  OFFSET 2.54057 -0.884171 1.56538
                  CHANNELS 3 Zrotation Xrotation Yrotation
                  End Site
                  {
                    OFFSET 1.62519 -0.234802 1.16502
                  }
                }
              }
              JOINT lMid1
              {
                OFFSET 8.24714 1.18213 3.41376
                CHANNELS 3 Zrotation Xrotation Yrotation
                JOINT lMid2
                {
                  OFFSET 3.10165 -0.590103 1.0647
                  CHANNELS 3 Zrotation Xrotation Yrotation
                  End Site
                  {
                    OFFSET 2.48547 -0.328903 0.83742
                  }
                }
              }
              JOINT lRing1
              {
                OFFSET 8.82822 0.546677 1.51678
                CHANNELS 3 Zrotation Xrotation Yrotation
                JOINT lRing2
                {
                  OFFSET 2.60934 -0.819778 -0.0198488
                  CHANNELS 3 Zrotation Xrotation Yrotation
                  End Site
                  {
                    OFFSET 2.33842 -0.294052 0.168128
                  }
                }
              }
              JOINT lPinky1
              {
                OFFSET 8.27202 -0.0477905 -0.4584
                CHANNELS 3 Zrotation Xrotation Yrotation
                JOINT lPinky2
                {
                  OFFSET 1.82734 -0.647385 -0.700984
                  CHANNELS 3 Zrotation Xrotation Yrotation
                  End Site
                  {
                    OFFSET 1.69225 -0.51767 -0.607171
                  }
                }
              }
            }
          }
        }
      }
    }
  }
  JOINT rButtock
  {
    OFFSET -8.77824 4.35084 1.2192
    CHANNELS 3 Zrotation Xrotation Yrotation
    JOINT rThigh
    {
      OFFSET 0 -1.70687 -2.19456
      CHANNELS 3 Zrotation Xrotation Yrotation
      JOINT rShin
      {
        OFFSET 0 -36.8199 0.73152
        CHANNELS 3 Zrotation Xrotation Yrotation
        JOINT rFoot
        {
          OFFSET 0.73152 -45.1104 -5.12064
          CHANNELS 3 Zrotation Xrotation Yrotation
          End Site
          {
            OFFSET -1.1221 -3.69964 12.103
          }
        }
      }
    }
  }
  JOINT lButtock
  {
    OFFSET 8.77824 4.35084 1.2192
    CHANNELS 3 Zrotation Xrotation Yrotation
    JOINT lThigh
    {
      OFFSET 0 -1.70687 -2.19456
      CHANNELS 3 Zrotation Xrotation Yrotation
      JOINT lShin
      {
        OFFSET 0 -36.8199 0.73152
        CHANNELS 3 Zrotation Xrotation Yrotation
        JOINT lFoot
        {
          OFFSET -0.73152 -45.1104 -5.12064
          CHANNELS 3 Zrotation Xrotation Yrotation
          End Site
          {
            OFFSET 1.1221 -3.69964 12.103
          }
        }
      }
    }
  }
}
MOTION
Frames:	9
Frame Time:	0.00833333
9.96433 84.8855 99.8221 0.0 0.0 0.0 -0.188093 -0.00125238 -0.00538536 -0.0519271 -0.00198484 -0.00899608 2.18715e-15 0.0 1.2424e-17 6.48535e-15 3.18055e-15 3.26131e-17 -0.0 0.0 0.0 -0.0 0.0 0.0 1.14172e-15 0.0 1.49089e-16 2.50277e-14 -1.2424e-16 1.19271e-15 3.9096e-13 -1.17879e-13 1.27222e-14 4.47182e-12 1.11046e-13 3.18055e-15 1.05479e-11 -1.27194e-14 6.04305e-14 1.82067e-11 -2.22639e-14 1.00187e-13 1.05531e-11 -1.11319e-14 5.725e-14 7.73091 5.47488 0.417314 1.05483e-11 -1.27222e-14 6.36111e-14 2.90554 0.965183 0.102902 1.05505e-11 -1.23246e-14 6.04305e-14 10.2786 0.731801 0.0259123 1.05463e-11 -1.15295e-14 6.36111e-14 2.22167 -0.733487 -0.20892 1.04498e-15 -1.94126e-19 -1.49089e-16 2.03088e-14 -1.18028e-16 -7.95139e-16 3.90115e-13 1.18674e-13 -1.59028e-14 4.47199e-12 -1.10425e-13 4.77083e-14 1.05508e-11 1.80977e-14 6.04305e-14 1.82278e-11 3.49861e-14 1.04958e-13 1.05439e-11 1.90833e-14 7.31528e-14 -7.73091 5.47488 -0.417314 1.05512e-11 1.78906e-14 5.725e-14 -2.90554 0.965183 -0.102902 1.05457e-11 1.73937e-14 6.04305e-14 -10.2786 0.731801 -0.0259123 1.05561e-11 1.86858e-14 5.40694e-14 -2.22167 -0.733487 0.20892 -2.03217e-16 0.0 -3.88251e-19 0.336766 -2.83766 -0.0337249 -0.00646417 -0.412346 -0.0567825 -0.478907 3.24961 0.120279 2.03217e-16 0.0 3.88251e-19 -0.623503 -3.58112 0.0516565 0.00431604 0.934356 0.0368619 0.4817 2.64641 -0.108452
10.5748 81.1734 95.0986 2.1925 3.6134 23.0594 -1.06721 -6.90087 -0.668003 -0.21786 0.534587 -0.122837 -1.05145 0.0973053 -0.655694 1.04212 4.84879 -1.15921 -0.0 0.0 0.0 -0.0 0.0 0.0 8.49791e-15 -2.73937e-14 -2.13655e-14 20.8374 10.3599 -2.51946 -3.69462 -1.58595 5.86785 0.0304148 -3.96179 -0.552454 3.20023e-11 7.52109e-11 -1.30426e-10 5.71645e-11 1.29619e-10 -2.25292e-10 3.20084e-11 7.52122e-11 -1.3043e-10 7.73091 5.47488 0.417314 3.20052e-11 7.5209e-11 -1.30422e-10 2.90554 0.965183 0.102902 3.20055e-11 7.52103e-11 -1.30426e-10 10.2786 0.731801 0.0259123 3.20001e-11 7.52116e-11 -1.30421e-10 2.22167 -0.733487 -0.20892 8.41253e-15 -2.73918e-14 -2.16341e-14 -21.0325 3.11033 5.49841 6.71804 -3.79567 -9.56132 -0.00187134 -0.960066 0.13486 -1.04232e-11 2.51741e-10 -8.12638e-11 -1.75215e-11 4.36385e-10 -1.40601e-10 -1.04316e-11 2.5174e-10 -8.12556e-11 -7.73091 5.47488 -0.417314 -1.04225e-11 2.51741e-10 -8.12652e-11 -2.90554 0.965183 -0.102902 -1.04276e-11 2.5174e-10 -8.12636e-11 -10.2786 0.731801 -0.0259123 -1.04184e-11 2.51742e-10 -8.12702e-11 -2.22167 -0.733487 0.20892 -2.03217e-16 0.0 -3.88251e-19 3.20684 -14.0228 0.329733 0.0987833 11.2758 0.212981 -2.6038 -10.4998 -8.74112 2.03217e-16 0.0 3.88251e-19 -2.16869 -9.94707 4.87131 -0.0239627 14.9868 -0.175462 1.50508 2.98 13.2407
10.5763 81.148 95.0838 2.2179 3.5533 23.0556 -2.16663 -14.2033 -1.39923 -0.392911 1.11543 -0.242952 -2.15892 0.197177 -1.34734 2.36132 9.96431 -2.41004 -0.0 0.0 0.0 -0.0 0.0 0.0 1.57128e-14 -5.30217e-14 -4.47576e-14 43.9034 21.1677 -5.4463 -7.23372 -3.19673 12.0614 -0.0218313 -8.04988 -1.13177 7.24618e-11 1.54074e-10 -2.90954e-10 1.29356e-10 2.65342e-10 -5.02309e-10 7.24689e-11 1.54075e-10 -2.90961e-10 7.73091 5.47488 0.417314 7.24675e-11 1.5407e-10 -2.90949e-10 2.90554 0.965183 0.102902 7.24656e-11 1.54073e-10 -2.90955e-10 10.2786 0.731801 0.0259123 7.2459e-11 1.54074e-10 -2.90948e-10 2.22167 -0.733487 -0.20892 1.56403e-14 -5.30176e-14 -4.49937e-14 -43.9185 6.29207 11.3604 12.4448 -7.44045 -19.7801 0.00107238 -1.97849 0.278047 -1.70283e-11 5.51642e-10 -1.68979e-10 -2.83819e-11 9.56159e-10 -2.92346e-10 -1.70384e-11 5.5164e-10 -1.68975e-10 -7.73091 5.47488 -0.417314 -1.70272e-11 5.51642e-10 -1.68978e-10 -2.90554 0.965183 -0.102902 -1.70319e-11 5.51641e-10 -1.68978e-10 -10.2786 0.731801 -0.0259123 -1.70239e-11 5.51643e-10 -1.68985e-10 -2.22167 -0.733487 0.20892 -2.03217e-16 0.0 -3.88251e-19 6.41677 -25.844 0.770456 0.0809667 23.6304 0.534435 -9.77408 -23.9922 -19.5551 2.03217e-16 0.0 3.88251e-19 -2.58916 -16.4951 10.2434 0.0749408 29.8386 -0.446412 2.41425 3.14157 27.3892
10.5971 81.132 95.0723 2.3272 3.5434 23.0514 -3.33221 -20.6886 -2.11517 -0.543328 1.6077 -0.350641 -3.14766 0.291763 -1.9671 3.7311 14.5221 -3.5797 -0.0 0.0 0.0 -0.0 0.0 0.0 2.32103e-14 -8.2181e-14 -6.43946e-14 65.6172 30.8187 -8.66633 -10.1238 -4.5586 17.6545 -0.142192 -11.8809 -1.68961 7.49112e-11 2.25658e-10 -3.91398e-10 1.3508e-10 3.889e-10 -6.76075e-10 7.49191e-11 2.25659e-10 -3.91406e-10 7.73091 5.47488 0.417314 7.49191e-11 2.25652e-10 -3.91392e-10 2.90554 0.965183 0.102902 7.49156e-11 2.25655e-10 -3.91398e-10 10.2786 0.731801 0.0259123 7.49077e-11 2.25658e-10 -3.91389e-10 2.22167 -0.733487 -0.20892 2.31476e-14 -8.21751e-14 -6.46042e-14 -64.8796 8.98611 16.6815 16.4813 -10.1201 -29.1157 0.00795901 -2.88013 0.405035 -5.23712e-11 7.55187e-10 -2.43912e-10 -8.90202e-11 1.30909e-09 -4.22012e-10 -5.23827e-11 7.55183e-10 -2.43913e-10 -7.73091 5.47488 -0.417314 -5.237e-11 7.55187e-10 -2.4391e-10 -2.90554 0.965183 -0.102902 -5.23742e-11 7.55186e-10 -2.43912e-10 -10.2786 0.731801 -0.0259123 -5.23672e-11 7.55188e-10 -2.43919e-10 -2.22167 -0.733487 0.20892 -2.03217e-16 0.0 -3.88251e-19 9.46093 -36.3869 1.27588 -0.0781861 34.649 0.899754 -21.2002 -33.8967 -31.9061 2.03217e-16 0.0 3.88251e-19 -1.86331 -22.0422 15.4445 0.326784 43.0891 -0.797222 3.16713 2.98467 39.9492
10.5872 81.1279 95.07 2.3844 3.5813 23.0705 -4.29692 -25.1419 -2.67725 -0.636917 1.87856 -0.427134 -3.84391 0.37327 -2.40715 4.79776 17.7085 -4.45031 -0.0 0.0 0.0 -0.0 0.0 0.0 3.14143e-14 -1.20169e-13 -7.46436e-14 81.7631 37.8038 -11.6578 -12.0463 -5.48111 21.6994 -0.287002 -15.0727 -2.16911 -1.76648e-11 2.79043e-10 -3.41627e-10 -2.53625e-11 4.82048e-10 -5.91713e-10 -1.76565e-11 2.79043e-10 -3.41636e-10 7.73091 5.47488 0.417314 -1.76561e-11 2.79036e-10 -3.4162e-10 2.90554 0.965183 0.102902 -1.76597e-11 2.79039e-10 -3.41627e-10 10.2786 0.731801 0.0259123 -1.7669e-11 2.79042e-10 -3.41617e-10 2.22167 -0.733487 -0.20892 3.1354e-14 -1.20162e-13 -7.48424e-14 -79.7869 10.7856 20.4756 18.7993 -11.5726 -35.8389 0.0149604 -3.48986 0.491081 -1.59559e-10 7.1784e-10 -2.86892e-10 -2.74103e-10 1.24489e-09 -4.96481e-10 -1.59571e-10 7.17835e-10 -2.86896e-10 -7.73091 5.47488 -0.417314 -1.59557e-10 7.17839e-10 -2.86889e-10 -2.90554 0.965183 -0.102902 -1.59562e-10 7.17839e-10 -2.86892e-10 -10.2786 0.731801 -0.0259123 -1.59555e-10 7.17841e-10 -2.86899e-10 -2.22167 -0.733487 0.20892 -2.03217e-16 0.0 -3.88251e-19 11.707 -43.7395 1.7459 -0.303593 42.3309 1.23806 -32.2451 -38.8153 -42.4714 2.03217e-16 0.0 3.88251e-19 -0.731497 -25.6755 19.375 0.662692 52.3386 -1.17884 3.80998 2.61022 48.5347
10.5724 81.1274 95.0157 2.5426 3.4824 23.0631 -4.83363 -26.7445 -2.94386 -0.648257 1.80571 -0.460511 -4.11937 0.45484 -2.59188 5.22054 18.998 -4.82719 -0.0 0.0 0.0 -0.0 0.0 0.0 4.42091e-14 -1.82861e-13 -7.51856e-14 88.8095 41.2494 -13.4966 -12.8817 -5.90602 23.5285 -0.403434 -17.3298 -2.51734 -3.10383e-10 3.30896e-10 -4.38893e-11 -5.34619e-10 5.74251e-10 -8.20038e-11 -3.10375e-10 3.30896e-10 -4.38991e-11 7.73091 5.47488 0.417314 -3.10376e-10 3.30889e-10 -4.38825e-11 2.90554 0.965183 0.102902 -3.10378e-10 3.30892e-10 -4.38893e-11 10.2786 0.731801 0.0259123 -3.10389e-10 3.30895e-10 -4.38788e-11 2.22167 -0.733487 -0.20892 4.4138e-14 -1.82856e-13 -7.53988e-14 -85.6799 11.5687 22.0459 19.6889 -12.1196 -38.725 0.0177695 -3.68525 0.518697 -4.16662e-10 3.14354e-10 -3.05166e-10 -7.18585e-10 5.46878e-10 -5.28399e-10 -4.16673e-10 3.14351e-10 -3.05169e-10 -7.73091 5.47488 -0.417314 -4.16661e-10 3.14354e-10 -3.05163e-10 -2.90554 0.965183 -0.102902 -4.16665e-10 3.14354e-10 -3.05165e-10 -10.2786 0.731801 -0.0259123 -4.16659e-10 3.14356e-10 -3.05171e-10 -2.22167 -0.733487 0.20892 -2.03217e-16 0.0 -3.88251e-19 12.544 -46.634 1.99047 -0.427898 45.3547 1.40089 -37.1815 -40.1985 -46.9612 2.03217e-16 0.0 3.88251e-19 -0.246081 -27.0506 20.974 0.855696 55.9792 -1.38864 4.206 2.31145 51.5562
10.5274 81.1188 94.9186 2.5648 3.5357 23.0316 -5.01234 -26.3142 -2.97052 -0.601462 1.48895 -0.463055 -4.09552 0.535619 -2.59442 5.13205 18.9377 -4.82965 -0.0 0.0 0.0 -0.0 0.0 0.0 6.01116e-14 -2.62613e-13 -6.86304e-14 88.8873 42.2483 -14.1558 -13.0099 -6.01691 23.7674 -0.482614 -18.9219 -2.76672 -7.42865e-10 3.80515e-10 4.29173e-10 -1.2875e-09 6.63797e-10 7.28478e-10 -7.42858e-10 3.80515e-10 4.29164e-10 7.73091 5.47488 0.417314 -7.42862e-10 3.80509e-10 4.2918e-10 2.90554 0.965183 0.102902 -7.42859e-10 3.80511e-10 4.29175e-10 10.2786 0.731801 0.0259123 -7.42872e-10 3.80513e-10 4.29184e-10 2.22167 -0.733487 -0.20892 6.00204e-14 -2.62609e-13 -6.88758e-14 -85.0062 11.694 21.9953 19.7645 -12.2634 -38.8333 0.0166975 -3.58497 0.504537 -7.78498e-10 -3.49283e-10 -3.04837e-10 -1.34429e-09 -6.01497e-10 -5.28272e-10 -7.78507e-10 -3.49285e-10 -3.04839e-10 -7.73091 5.47488 -0.417314 -7.78497e-10 -3.49283e-10 -3.04835e-10 -2.90554 0.965183 -0.102902 -7.78503e-10 -3.49283e-10 -3.04837e-10 -10.2786 0.731801 -0.0259123 -7.78496e-10 -3.4928e-10 -3.04842e-10 -2.22167 -0.733487 0.20892 -2.03217e-16 0.0 -3.88251e-19 12.2854 -46.3459 1.99846 -0.413732 45.052 1.38427 -36.5889 -40.1363 -46.3876 2.03217e-16 0.0 3.88251e-19 -0.510735 -26.9394 20.7535 0.833103 55.6152 -1.37323 4.39771 2.08867 50.608
10.5613 81.1251 94.8925 2.756 3.7652 22.9929 -4.98142 -25.0937 -2.88565 -0.538905 1.12865 -0.452257 -3.97348 0.58685 -2.52999 4.86168 18.3267 -4.68883 -0.0 0.0 0.0 -0.0 0.0 0.0 7.14943e-14 -3.29435e-13 -5.37386e-14 86.0754 42.2888 -14.2494 -12.8806 -6.02219 23.4006 -0.545601 -20.3153 -2.98581 -1.12388e-09 3.90924e-10 9.12099e-10 -1.95193e-09 6.85671e-10 1.55692e-09 -1.12387e-09 3.90925e-10 9.1209e-10 7.73091 5.47488 0.417314 -1.12388e-09 3.9092e-10 9.12106e-10 2.90554 0.965183 0.102902 -1.12387e-09 3.90921e-10 9.12102e-10 10.2786 0.731801 0.0259123 -1.12389e-09 3.90923e-10 9.1211e-10 2.22167 -0.733487 -0.20892 7.13838e-14 -3.29434e-13 -5.40178e-14 -81.6969 11.5463 21.2541 19.5251 -12.2583 -37.8102 0.0143023 -3.37554 0.474968 -1.1033e-09 -1.07076e-09 -2.65024e-10 -1.90622e-09 -1.85024e-09 -4.59762e-10 -1.1033e-09 -1.07076e-09 -2.65023e-10 -7.73091 5.47488 -0.417314 -1.10329e-09 -1.07076e-09 -2.65023e-10 -2.90554 0.965183 -0.102902 -1.1033e-09 -1.07076e-09 -2.65024e-10 -10.2786 0.731801 -0.0259123 -1.10329e-09 -1.07075e-09 -2.65028e-10 -2.22167 -0.733487 0.20892 -2.03217e-16 0.0 -3.88251e-19 11.6337 -44.7801 1.8859 -0.34356 43.4015 1.29586 -33.8183 -39.4443 -43.842 2.03217e-16 0.0 3.88251e-19 -1.02315 -26.2358 19.8072 0.722878 53.6655 -1.2719 4.67213 1.69193 48.0903
10.5676 81.1406 94.8905 2.7931 4.0462 23.0145 -4.89459 -24.3253 -2.81936 -0.503246 0.925148 -0.44557 -3.95365 0.579742 -2.51383 4.7446 17.964 -4.63833 -0.0 0.0 0.0 -0.0 0.0 0.0 7.07298e-14 -3.5334e-13 -2.9271e-14 84.6592 42.8205 -14.5568 -12.9251 -6.1189 23.4153 -0.631377 -21.9752 -3.25107 -1.2622e-09 3.25148e-10 1.23943e-09 -2.19587e-09 5.7486e-10 2.12052e-09 -1.2622e-09 3.25149e-10 1.23942e-09 7.73091 5.47488 0.417314 -1.2622e-09 3.25145e-10 1.23943e-09 2.90554 0.965183 0.102902 -1.26219e-09 3.25145e-10 1.23943e-09 10.2786 0.731801 0.0259123 -1.26221e-09 3.25147e-10 1.23944e-09 2.22167 -0.733487 -0.20892 7.06108e-14 -3.53341e-13 -2.95692e-14 -79.7058 11.4989 20.7595 19.4287 -12.3099 -37.3105 0.0129199 -3.24349 0.456335 -1.24928e-09 -1.64775e-09 -1.64842e-10 -2.15933e-09 -2.84936e-09 -2.86535e-10 -1.24929e-09 -1.64775e-09 -1.64839e-10 -7.73091 5.47488 -0.417314 -1.24928e-09 -1.64775e-09 -1.64842e-10 -2.90554 0.965183 -0.102902 -1.24929e-09 -1.64775e-09 -1.64842e-10 -10.2786 0.731801 -0.0259123 -1.24928e-09 -1.64775e-09 -1.64845e-10 -2.22167 -0.733487 0.20892 -2.03217e-16 0.0 -3.88251e-19 11.3046 -43.8409 1.77882 -0.303868 42.382 1.24666 -32.2822 -38.9 -42.4648 2.03217e-16 0.0 3.88251e-19 -1.26789 -25.8294 19.237 0.661075 52.5489 -1.23125 5.33721 0.905718 46.4102
